<?xml version="1.0" encoding="UTF-8" standalone="no"?>
<!DOCTYPE svg PUBLIC "-//W3C//DTD SVG 1.1//EN"
 "http://www.w3.org/Graphics/SVG/1.1/DTD/svg11.dtd">
<!-- Generated by graphviz version 2.40.1 (20161225.0304)
 -->
<!-- Title: G Pages: 1 -->
<svg width="2819pt" height="1056pt"
 viewBox="0.00 0.00 2819.20 1055.70" xmlns="http://www.w3.org/2000/svg" xmlns:xlink="http://www.w3.org/1999/xlink">
<g id="graph0" class="graph" transform="scale(1 1) rotate(0) translate(21.6 1034.1)">
<title>G</title>
<polygon fill="#111111" stroke="transparent" points="-21.6,21.6 -21.6,-1034.1 2797.6,-1034.1 2797.6,21.6 -21.6,21.6"/>
<!-- app.js -->
<g id="node1" class="node">
<title>app.js</title>
<path fill="none" stroke="#c6c5fe" d="M48.3333,-185C48.3333,-185 7.6667,-185 7.6667,-185 3.8333,-185 0,-181.1667 0,-177.3333 0,-177.3333 0,-169.6667 0,-169.6667 0,-165.8333 3.8333,-162 7.6667,-162 7.6667,-162 48.3333,-162 48.3333,-162 52.1667,-162 56,-165.8333 56,-169.6667 56,-169.6667 56,-177.3333 56,-177.3333 56,-181.1667 52.1667,-185 48.3333,-185"/>
<text text-anchor="middle" x="28" y="-169.8" font-family="Arial" font-size="14.00" fill="#c6c5fe">app.js</text>
</g>
<!-- config/mysql/mysql&#45;config.js -->
<g id="node2" class="node">
<title>config/mysql/mysql&#45;config.js</title>
<path fill="none" stroke="#c6c5fe" d="M2652.3333,-729C2652.3333,-729 2470.6667,-729 2470.6667,-729 2466.8333,-729 2463,-725.1667 2463,-721.3333 2463,-721.3333 2463,-713.6667 2463,-713.6667 2463,-709.8333 2466.8333,-706 2470.6667,-706 2470.6667,-706 2652.3333,-706 2652.3333,-706 2656.1667,-706 2660,-709.8333 2660,-713.6667 2660,-713.6667 2660,-721.3333 2660,-721.3333 2660,-725.1667 2656.1667,-729 2652.3333,-729"/>
<text text-anchor="middle" x="2561.5" y="-713.8" font-family="Arial" font-size="14.00" fill="#c6c5fe">config/mysql/mysql&#45;config.js</text>
</g>
<!-- app.js&#45;&gt;config/mysql/mysql&#45;config.js -->
<g id="edge1" class="edge">
<title>app.js&#45;&gt;config/mysql/mysql&#45;config.js</title>
<path fill="none" stroke="#757575" d="M28.4887,-185.0411C33.4164,-285.8122 82.5906,-1012.5 476,-1012.5 476,-1012.5 476,-1012.5 2188,-1012.5 2305.6872,-1012.5 2336.1144,-973.2669 2427,-898.5 2484.2058,-851.4397 2530.3236,-775.0684 2550.4936,-738.4218"/>
<polygon fill="#757575" stroke="#757575" points="2553.8043,-739.6575 2555.4821,-729.1964 2547.6468,-736.3279 2553.8043,-739.6575"/>
</g>
<!-- config/passport/passport&#45;config.js -->
<g id="node3" class="node">
<title>config/passport/passport&#45;config.js</title>
<path fill="none" stroke="#c6c5fe" d="M317.3333,-226C317.3333,-226 99.6667,-226 99.6667,-226 95.8333,-226 92,-222.1667 92,-218.3333 92,-218.3333 92,-210.6667 92,-210.6667 92,-206.8333 95.8333,-203 99.6667,-203 99.6667,-203 317.3333,-203 317.3333,-203 321.1667,-203 325,-206.8333 325,-210.6667 325,-210.6667 325,-218.3333 325,-218.3333 325,-222.1667 321.1667,-226 317.3333,-226"/>
<text text-anchor="middle" x="208.5" y="-210.8" font-family="Arial" font-size="14.00" fill="#c6c5fe">config/passport/passport&#45;config.js</text>
</g>
<!-- app.js&#45;&gt;config/passport/passport&#45;config.js -->
<g id="edge2" class="edge">
<title>app.js&#45;&gt;config/passport/passport&#45;config.js</title>
<path fill="none" stroke="#757575" d="M56.1419,-183.1261C67.2294,-186.6993 80.1291,-190.5873 92,-193.5 103.0378,-196.2083 114.7433,-198.7265 126.3128,-201.0103"/>
<polygon fill="#757575" stroke="#757575" points="125.9436,-204.5034 136.4248,-202.9558 127.2662,-197.6294 125.9436,-204.5034"/>
</g>
<!-- config/winston/winston&#45;config.js -->
<g id="node4" class="node">
<title>config/winston/winston&#45;config.js</title>
<path fill="none" stroke="#cfffac" d="M310.8333,-105C310.8333,-105 106.1667,-105 106.1667,-105 102.3333,-105 98.5,-101.1667 98.5,-97.3333 98.5,-97.3333 98.5,-89.6667 98.5,-89.6667 98.5,-85.8333 102.3333,-82 106.1667,-82 106.1667,-82 310.8333,-82 310.8333,-82 314.6667,-82 318.5,-85.8333 318.5,-89.6667 318.5,-89.6667 318.5,-97.3333 318.5,-97.3333 318.5,-101.1667 314.6667,-105 310.8333,-105"/>
<text text-anchor="middle" x="208.5" y="-89.8" font-family="Arial" font-size="14.00" fill="#cfffac">config/winston/winston&#45;config.js</text>
</g>
<!-- app.js&#45;&gt;config/winston/winston&#45;config.js -->
<g id="edge3" class="edge">
<title>app.js&#45;&gt;config/winston/winston&#45;config.js</title>
<path fill="none" stroke="#757575" d="M38.5795,-161.6931C50.3809,-149.2726 70.6386,-130.0892 92,-119.5 101.5244,-114.7786 111.9094,-110.9054 122.4278,-107.73"/>
<polygon fill="#757575" stroke="#757575" points="123.427,-111.0849 132.1042,-105.0058 121.5299,-104.3468 123.427,-111.0849"/>
</g>
<!-- routes/auth.js -->
<g id="node5" class="node">
<title>routes/auth.js</title>
<path fill="none" stroke="#c6c5fe" d="M520.3333,-135C520.3333,-135 431.6667,-135 431.6667,-135 427.8333,-135 424,-131.1667 424,-127.3333 424,-127.3333 424,-119.6667 424,-119.6667 424,-115.8333 427.8333,-112 431.6667,-112 431.6667,-112 520.3333,-112 520.3333,-112 524.1667,-112 528,-115.8333 528,-119.6667 528,-119.6667 528,-127.3333 528,-127.3333 528,-131.1667 524.1667,-135 520.3333,-135"/>
<text text-anchor="middle" x="476" y="-119.8" font-family="Arial" font-size="14.00" fill="#c6c5fe">routes/auth.js</text>
</g>
<!-- app.js&#45;&gt;routes/auth.js -->
<g id="edge4" class="edge">
<title>app.js&#45;&gt;routes/auth.js</title>
<path fill="none" stroke="#757575" d="M56.2789,-162.5891C67.2726,-158.7814 80.0716,-154.8711 92,-152.5 203.7908,-130.2789 336.9854,-124.7928 413.4994,-123.6073"/>
<polygon fill="#757575" stroke="#757575" points="413.9595,-127.1015 423.9115,-123.4672 413.8653,-120.1021 413.9595,-127.1015"/>
</g>
<!-- routes/index.js -->
<g id="node6" class="node">
<title>routes/index.js</title>
<path fill="none" stroke="#cfffac" d="M255.8333,-64C255.8333,-64 161.1667,-64 161.1667,-64 157.3333,-64 153.5,-60.1667 153.5,-56.3333 153.5,-56.3333 153.5,-48.6667 153.5,-48.6667 153.5,-44.8333 157.3333,-41 161.1667,-41 161.1667,-41 255.8333,-41 255.8333,-41 259.6667,-41 263.5,-44.8333 263.5,-48.6667 263.5,-48.6667 263.5,-56.3333 263.5,-56.3333 263.5,-60.1667 259.6667,-64 255.8333,-64"/>
<text text-anchor="middle" x="208.5" y="-48.8" font-family="Arial" font-size="14.00" fill="#cfffac">routes/index.js</text>
</g>
<!-- app.js&#45;&gt;routes/index.js -->
<g id="edge5" class="edge">
<title>app.js&#45;&gt;routes/index.js</title>
<path fill="none" stroke="#757575" d="M31.782,-161.8641C39.4186,-140.3668 58.8373,-94.6086 92,-72.5 106.9873,-62.5084 125.3927,-57.0173 143.1104,-54.115"/>
<polygon fill="#757575" stroke="#757575" points="144.0041,-57.5249 153.4318,-52.6909 143.0473,-50.5906 144.0041,-57.5249"/>
</g>
<!-- routes/sessionAPI.js -->
<g id="node7" class="node">
<title>routes/sessionAPI.js</title>
<path fill="none" stroke="#c6c5fe" d="M275.3333,-276C275.3333,-276 141.6667,-276 141.6667,-276 137.8333,-276 134,-272.1667 134,-268.3333 134,-268.3333 134,-260.6667 134,-260.6667 134,-256.8333 137.8333,-253 141.6667,-253 141.6667,-253 275.3333,-253 275.3333,-253 279.1667,-253 283,-256.8333 283,-260.6667 283,-260.6667 283,-268.3333 283,-268.3333 283,-272.1667 279.1667,-276 275.3333,-276"/>
<text text-anchor="middle" x="208.5" y="-260.8" font-family="Arial" font-size="14.00" fill="#c6c5fe">routes/sessionAPI.js</text>
</g>
<!-- app.js&#45;&gt;routes/sessionAPI.js -->
<g id="edge6" class="edge">
<title>app.js&#45;&gt;routes/sessionAPI.js</title>
<path fill="none" stroke="#757575" d="M37.0908,-185.2395C48.4483,-199.0917 69.1846,-221.8361 92,-234.5 103.6414,-240.9617 116.7094,-246.0655 129.7714,-250.0871"/>
<polygon fill="#757575" stroke="#757575" points="129.1571,-253.5524 139.7352,-252.956 131.0941,-246.8256 129.1571,-253.5524"/>
</g>
<!-- routes/sessions.js -->
<g id="node8" class="node">
<title>routes/sessions.js</title>
<path fill="none" stroke="#cfffac" d="M267.3333,-23C267.3333,-23 149.6667,-23 149.6667,-23 145.8333,-23 142,-19.1667 142,-15.3333 142,-15.3333 142,-7.6667 142,-7.6667 142,-3.8333 145.8333,0 149.6667,0 149.6667,0 267.3333,0 267.3333,0 271.1667,0 275,-3.8333 275,-7.6667 275,-7.6667 275,-15.3333 275,-15.3333 275,-19.1667 271.1667,-23 267.3333,-23"/>
<text text-anchor="middle" x="208.5" y="-7.8" font-family="Arial" font-size="14.00" fill="#cfffac">routes/sessions.js</text>
</g>
<!-- app.js&#45;&gt;routes/sessions.js -->
<g id="edge7" class="edge">
<title>app.js&#45;&gt;routes/sessions.js</title>
<path fill="none" stroke="#757575" d="M29.5757,-161.6736C33.9292,-134.0167 48.8044,-64.9335 92,-31.5 103.5374,-22.57 117.6515,-17.0575 132.0213,-13.753"/>
<polygon fill="#757575" stroke="#757575" points="132.8407,-17.1591 141.982,-11.8031 131.4959,-10.2895 132.8407,-17.1591"/>
</g>
<!-- routes/userAPI.js -->
<g id="node9" class="node">
<title>routes/userAPI.js</title>
<path fill="none" stroke="#c6c5fe" d="M264.3333,-185C264.3333,-185 152.6667,-185 152.6667,-185 148.8333,-185 145,-181.1667 145,-177.3333 145,-177.3333 145,-169.6667 145,-169.6667 145,-165.8333 148.8333,-162 152.6667,-162 152.6667,-162 264.3333,-162 264.3333,-162 268.1667,-162 272,-165.8333 272,-169.6667 272,-169.6667 272,-177.3333 272,-177.3333 272,-181.1667 268.1667,-185 264.3333,-185"/>
<text text-anchor="middle" x="208.5" y="-169.8" font-family="Arial" font-size="14.00" fill="#c6c5fe">routes/userAPI.js</text>
</g>
<!-- app.js&#45;&gt;routes/userAPI.js -->
<g id="edge8" class="edge">
<title>app.js&#45;&gt;routes/userAPI.js</title>
<path fill="none" stroke="#757575" d="M56.2031,-173.5C77.3085,-173.5 107.1882,-173.5 134.8987,-173.5"/>
<polygon fill="#757575" stroke="#757575" points="134.9894,-177.0001 144.9894,-173.5 134.9893,-170.0001 134.9894,-177.0001"/>
</g>
<!-- src/controller/ErrorController.js -->
<g id="node10" class="node">
<title>src/controller/ErrorController.js</title>
<path fill="none" stroke="#c6c5fe" d="M1382.8333,-486C1382.8333,-486 1188.1667,-486 1188.1667,-486 1184.3333,-486 1180.5,-482.1667 1180.5,-478.3333 1180.5,-478.3333 1180.5,-470.6667 1180.5,-470.6667 1180.5,-466.8333 1184.3333,-463 1188.1667,-463 1188.1667,-463 1382.8333,-463 1382.8333,-463 1386.6667,-463 1390.5,-466.8333 1390.5,-470.6667 1390.5,-470.6667 1390.5,-478.3333 1390.5,-478.3333 1390.5,-482.1667 1386.6667,-486 1382.8333,-486"/>
<text text-anchor="middle" x="1285.5" y="-470.8" font-family="Arial" font-size="14.00" fill="#c6c5fe">src/controller/ErrorController.js</text>
</g>
<!-- app.js&#45;&gt;src/controller/ErrorController.js -->
<g id="edge9" class="edge">
<title>app.js&#45;&gt;src/controller/ErrorController.js</title>
<path fill="none" stroke="#757575" d="M32.0267,-185.0269C40.2002,-206.9672 60.6626,-255.155 92,-284.5 230.8461,-414.5187 285.7814,-473.5 476,-473.5 476,-473.5 476,-473.5 735.5,-473.5 885.6206,-473.5 1058.7891,-473.8772 1170.0783,-474.1682"/>
<polygon fill="#757575" stroke="#757575" points="1170.3084,-477.6687 1180.3176,-474.1952 1170.3269,-470.6688 1170.3084,-477.6687"/>
</g>
<!-- knexfile.js -->
<g id="node17" class="node">
<title>knexfile.js</title>
<path fill="none" stroke="#cfffac" d="M2768.3333,-729C2768.3333,-729 2703.6667,-729 2703.6667,-729 2699.8333,-729 2696,-725.1667 2696,-721.3333 2696,-721.3333 2696,-713.6667 2696,-713.6667 2696,-709.8333 2699.8333,-706 2703.6667,-706 2703.6667,-706 2768.3333,-706 2768.3333,-706 2772.1667,-706 2776,-709.8333 2776,-713.6667 2776,-713.6667 2776,-721.3333 2776,-721.3333 2776,-725.1667 2772.1667,-729 2768.3333,-729"/>
<text text-anchor="middle" x="2736" y="-713.8" font-family="Arial" font-size="14.00" fill="#cfffac">knexfile.js</text>
</g>
<!-- config/mysql/mysql&#45;config.js&#45;&gt;knexfile.js -->
<g id="edge14" class="edge">
<title>config/mysql/mysql&#45;config.js&#45;&gt;knexfile.js</title>
<path fill="none" stroke="#757575" d="M2660.2231,-717.5C2668.9095,-717.5 2677.4415,-717.5 2685.4666,-717.5"/>
<polygon fill="#757575" stroke="#757575" points="2685.6948,-721.0001 2695.6948,-717.5 2685.6948,-714.0001 2685.6948,-721.0001"/>
</g>
<!-- config/passport/keys.js -->
<g id="node18" class="node">
<title>config/passport/keys.js</title>
<path fill="none" stroke="#cfffac" d="M809.8333,-175C809.8333,-175 661.1667,-175 661.1667,-175 657.3333,-175 653.5,-171.1667 653.5,-167.3333 653.5,-167.3333 653.5,-159.6667 653.5,-159.6667 653.5,-155.8333 657.3333,-152 661.1667,-152 661.1667,-152 809.8333,-152 809.8333,-152 813.6667,-152 817.5,-155.8333 817.5,-159.6667 817.5,-159.6667 817.5,-167.3333 817.5,-167.3333 817.5,-171.1667 813.6667,-175 809.8333,-175"/>
<text text-anchor="middle" x="735.5" y="-159.8" font-family="Arial" font-size="14.00" fill="#cfffac">config/passport/keys.js</text>
</g>
<!-- config/passport/passport&#45;config.js&#45;&gt;config/passport/keys.js -->
<g id="edge15" class="edge">
<title>config/passport/passport&#45;config.js&#45;&gt;config/passport/keys.js</title>
<path fill="none" stroke="#757575" d="M325.0272,-207.3657C400.9015,-202.2262 501.9636,-194.4504 591,-184.5 611.0436,-182.26 632.5851,-179.3841 652.7576,-176.4838"/>
<polygon fill="#757575" stroke="#757575" points="653.4595,-179.9186 662.851,-175.0147 652.4512,-172.9916 653.4595,-179.9186"/>
</g>
<!-- src/users/UserController.js -->
<g id="node19" class="node">
<title>src/users/UserController.js</title>
<path fill="none" stroke="#c6c5fe" d="M561.3333,-176C561.3333,-176 390.6667,-176 390.6667,-176 386.8333,-176 383,-172.1667 383,-168.3333 383,-168.3333 383,-160.6667 383,-160.6667 383,-156.8333 386.8333,-153 390.6667,-153 390.6667,-153 561.3333,-153 561.3333,-153 565.1667,-153 569,-156.8333 569,-160.6667 569,-160.6667 569,-168.3333 569,-168.3333 569,-172.1667 565.1667,-176 561.3333,-176"/>
<text text-anchor="middle" x="476" y="-160.8" font-family="Arial" font-size="14.00" fill="#c6c5fe">src/users/UserController.js</text>
</g>
<!-- config/passport/passport&#45;config.js&#45;&gt;src/users/UserController.js -->
<g id="edge16" class="edge">
<title>config/passport/passport&#45;config.js&#45;&gt;src/users/UserController.js</title>
<path fill="none" stroke="#757575" d="M273.2269,-202.9678C290.0883,-199.9266 308.2302,-196.6217 325,-193.5 351.7592,-188.5188 381.1571,-182.905 406.8466,-177.9527"/>
<polygon fill="#757575" stroke="#757575" points="407.7107,-181.3506 416.866,-176.0186 406.3838,-174.4775 407.7107,-181.3506"/>
</g>
<!-- src/users/UserService.js -->
<g id="node20" class="node">
<title>src/users/UserService.js</title>
<path fill="none" stroke="#c6c5fe" d="M814.3333,-216C814.3333,-216 656.6667,-216 656.6667,-216 652.8333,-216 649,-212.1667 649,-208.3333 649,-208.3333 649,-200.6667 649,-200.6667 649,-196.8333 652.8333,-193 656.6667,-193 656.6667,-193 814.3333,-193 814.3333,-193 818.1667,-193 822,-196.8333 822,-200.6667 822,-200.6667 822,-208.3333 822,-208.3333 822,-212.1667 818.1667,-216 814.3333,-216"/>
<text text-anchor="middle" x="735.5" y="-200.8" font-family="Arial" font-size="14.00" fill="#c6c5fe">src/users/UserService.js</text>
</g>
<!-- config/passport/passport&#45;config.js&#45;&gt;src/users/UserService.js -->
<g id="edge17" class="edge">
<title>config/passport/passport&#45;config.js&#45;&gt;src/users/UserService.js</title>
<path fill="none" stroke="#757575" d="M325.3281,-219.274C401.1055,-221.4936 501.9487,-222.8038 591,-218.5 606.3852,-217.7564 622.6597,-216.57 638.5221,-215.1946"/>
<polygon fill="#757575" stroke="#757575" points="639.2256,-218.6457 648.873,-214.2662 638.6002,-211.6736 639.2256,-218.6457"/>
</g>
<!-- routes/auth.js&#45;&gt;config/passport/keys.js -->
<g id="edge18" class="edge">
<title>routes/auth.js&#45;&gt;config/passport/keys.js</title>
<path fill="none" stroke="#757575" d="M528.2015,-131.5465C563.267,-136.9516 610.2683,-144.1965 650.6507,-150.4211"/>
<polygon fill="#757575" stroke="#757575" points="650.347,-153.9156 660.7635,-151.9799 651.4134,-146.9973 650.347,-153.9156"/>
</g>
<!-- src/sessions/SessionController.js -->
<g id="node21" class="node">
<title>src/sessions/SessionController.js</title>
<path fill="none" stroke="#c6c5fe" d="M583.3333,-294C583.3333,-294 368.6667,-294 368.6667,-294 364.8333,-294 361,-290.1667 361,-286.3333 361,-286.3333 361,-278.6667 361,-278.6667 361,-274.8333 364.8333,-271 368.6667,-271 368.6667,-271 583.3333,-271 583.3333,-271 587.1667,-271 591,-274.8333 591,-278.6667 591,-278.6667 591,-286.3333 591,-286.3333 591,-290.1667 587.1667,-294 583.3333,-294"/>
<text text-anchor="middle" x="476" y="-278.8" font-family="Arial" font-size="14.00" fill="#c6c5fe">src/sessions/SessionController.js</text>
</g>
<!-- routes/sessionAPI.js&#45;&gt;src/sessions/SessionController.js -->
<g id="edge19" class="edge">
<title>routes/sessionAPI.js&#45;&gt;src/sessions/SessionController.js</title>
<path fill="none" stroke="#757575" d="M283.0137,-269.514C304.0213,-270.9276 327.4721,-272.5056 350.5895,-274.0612"/>
<polygon fill="#757575" stroke="#757575" points="350.609,-277.5703 360.8214,-274.7497 351.079,-270.5861 350.609,-277.5703"/>
</g>
<!-- routes/userAPI.js&#45;&gt;src/users/UserController.js -->
<g id="edge20" class="edge">
<title>routes/userAPI.js&#45;&gt;src/users/UserController.js</title>
<path fill="none" stroke="#757575" d="M272.2331,-171.3557C302.2028,-170.3474 338.7044,-169.1193 372.4895,-167.9826"/>
<polygon fill="#757575" stroke="#757575" points="373.0005,-171.4675 382.8771,-167.6331 372.765,-164.4714 373.0005,-171.4675"/>
</g>
<!-- src/errors/AppError.js -->
<g id="node22" class="node">
<title>src/errors/AppError.js</title>
<path fill="none" stroke="#cfffac" d="M1608.8333,-486C1608.8333,-486 1472.1667,-486 1472.1667,-486 1468.3333,-486 1464.5,-482.1667 1464.5,-478.3333 1464.5,-478.3333 1464.5,-470.6667 1464.5,-470.6667 1464.5,-466.8333 1468.3333,-463 1472.1667,-463 1472.1667,-463 1608.8333,-463 1608.8333,-463 1612.6667,-463 1616.5,-466.8333 1616.5,-470.6667 1616.5,-470.6667 1616.5,-478.3333 1616.5,-478.3333 1616.5,-482.1667 1612.6667,-486 1608.8333,-486"/>
<text text-anchor="middle" x="1540.5" y="-470.8" font-family="Arial" font-size="14.00" fill="#cfffac">src/errors/AppError.js</text>
</g>
<!-- src/controller/ErrorController.js&#45;&gt;src/errors/AppError.js -->
<g id="edge21" class="edge">
<title>src/controller/ErrorController.js&#45;&gt;src/errors/AppError.js</title>
<path fill="none" stroke="#757575" d="M1390.6905,-474.5C1411.816,-474.5 1433.7849,-474.5 1454.1791,-474.5"/>
<polygon fill="#757575" stroke="#757575" points="1454.3694,-478.0001 1464.3694,-474.5 1454.3693,-471.0001 1454.3694,-478.0001"/>
</g>
<!-- config/app/app&#45;config.js -->
<g id="node11" class="node">
<title>config/app/app&#45;config.js</title>
<path fill="none" stroke="#cfffac" d="M1617.8333,-794C1617.8333,-794 1463.1667,-794 1463.1667,-794 1459.3333,-794 1455.5,-790.1667 1455.5,-786.3333 1455.5,-786.3333 1455.5,-778.6667 1455.5,-778.6667 1455.5,-774.8333 1459.3333,-771 1463.1667,-771 1463.1667,-771 1617.8333,-771 1617.8333,-771 1621.6667,-771 1625.5,-774.8333 1625.5,-778.6667 1625.5,-778.6667 1625.5,-786.3333 1625.5,-786.3333 1625.5,-790.1667 1621.6667,-794 1617.8333,-794"/>
<text text-anchor="middle" x="1540.5" y="-778.8" font-family="Arial" font-size="14.00" fill="#cfffac">config/app/app&#45;config.js</text>
</g>
<!-- config/cancan/cancan&#45;config.js -->
<g id="node12" class="node">
<title>config/cancan/cancan&#45;config.js</title>
<path fill="none" stroke="#c6c5fe" d="M1641.3333,-620C1641.3333,-620 1439.6667,-620 1439.6667,-620 1435.8333,-620 1432,-616.1667 1432,-612.3333 1432,-612.3333 1432,-604.6667 1432,-604.6667 1432,-600.8333 1435.8333,-597 1439.6667,-597 1439.6667,-597 1641.3333,-597 1641.3333,-597 1645.1667,-597 1649,-600.8333 1649,-604.6667 1649,-604.6667 1649,-612.3333 1649,-612.3333 1649,-616.1667 1645.1667,-620 1641.3333,-620"/>
<text text-anchor="middle" x="1540.5" y="-604.8" font-family="Arial" font-size="14.00" fill="#c6c5fe">config/cancan/cancan&#45;config.js</text>
</g>
<!-- src/questions/Question.js -->
<g id="node13" class="node">
<title>src/questions/Question.js</title>
<path fill="none" stroke="#ff6c60" d="M2060.3333,-728C2060.3333,-728 1896.6667,-728 1896.6667,-728 1892.8333,-728 1889,-724.1667 1889,-720.3333 1889,-720.3333 1889,-712.6667 1889,-712.6667 1889,-708.8333 1892.8333,-705 1896.6667,-705 1896.6667,-705 2060.3333,-705 2060.3333,-705 2064.1667,-705 2068,-708.8333 2068,-712.6667 2068,-712.6667 2068,-720.3333 2068,-720.3333 2068,-724.1667 2064.1667,-728 2060.3333,-728"/>
<text text-anchor="middle" x="1978.5" y="-712.8" font-family="Arial" font-size="14.00" fill="#ff6c60">src/questions/Question.js</text>
</g>
<!-- config/cancan/cancan&#45;config.js&#45;&gt;src/questions/Question.js -->
<g id="edge10" class="edge">
<title>config/cancan/cancan&#45;config.js&#45;&gt;src/questions/Question.js</title>
<path fill="none" stroke="#757575" d="M1580.5545,-620.0788C1609.4905,-628.3233 1649.5542,-639.4922 1685,-648.5 1764.1894,-668.6244 1856.0203,-689.5087 1915.5786,-702.7321"/>
<polygon fill="#757575" stroke="#757575" points="1915.0621,-706.2024 1925.5824,-704.9485 1916.5763,-699.3682 1915.0621,-706.2024"/>
</g>
<!-- src/roles/Role.js -->
<g id="node14" class="node">
<title>src/roles/Role.js</title>
<path fill="none" stroke="#ff6c60" d="M2419.3333,-453C2419.3333,-453 2315.6667,-453 2315.6667,-453 2311.8333,-453 2308,-449.1667 2308,-445.3333 2308,-445.3333 2308,-437.6667 2308,-437.6667 2308,-433.8333 2311.8333,-430 2315.6667,-430 2315.6667,-430 2419.3333,-430 2419.3333,-430 2423.1667,-430 2427,-433.8333 2427,-437.6667 2427,-437.6667 2427,-445.3333 2427,-445.3333 2427,-449.1667 2423.1667,-453 2419.3333,-453"/>
<text text-anchor="middle" x="2367.5" y="-437.8" font-family="Arial" font-size="14.00" fill="#ff6c60">src/roles/Role.js</text>
</g>
<!-- config/cancan/cancan&#45;config.js&#45;&gt;src/roles/Role.js -->
<g id="edge11" class="edge">
<title>config/cancan/cancan&#45;config.js&#45;&gt;src/roles/Role.js</title>
<path fill="none" stroke="#757575" d="M1553.7521,-596.979C1577.9697,-576.6258 1631.7954,-534.5661 1685,-514.5 1897.0202,-434.5365 2170.6281,-433.0884 2297.3507,-437.6336"/>
<polygon fill="#757575" stroke="#757575" points="2297.5586,-441.144 2307.6853,-438.0295 2297.8266,-434.1492 2297.5586,-441.144"/>
</g>
<!-- src/sessions/Session.js -->
<g id="node15" class="node">
<title>src/sessions/Session.js</title>
<path fill="none" stroke="#ff6c60" d="M2264.3333,-617C2264.3333,-617 2111.6667,-617 2111.6667,-617 2107.8333,-617 2104,-613.1667 2104,-609.3333 2104,-609.3333 2104,-601.6667 2104,-601.6667 2104,-597.8333 2107.8333,-594 2111.6667,-594 2111.6667,-594 2264.3333,-594 2264.3333,-594 2268.1667,-594 2272,-597.8333 2272,-601.6667 2272,-601.6667 2272,-609.3333 2272,-609.3333 2272,-613.1667 2268.1667,-617 2264.3333,-617"/>
<text text-anchor="middle" x="2188" y="-601.8" font-family="Arial" font-size="14.00" fill="#ff6c60">src/sessions/Session.js</text>
</g>
<!-- config/cancan/cancan&#45;config.js&#45;&gt;src/sessions/Session.js -->
<g id="edge12" class="edge">
<title>config/cancan/cancan&#45;config.js&#45;&gt;src/sessions/Session.js</title>
<path fill="none" stroke="#757575" d="M1649.2419,-607.9962C1773.6719,-607.4197 1975.4363,-606.4849 2093.5459,-605.9376"/>
<polygon fill="#757575" stroke="#757575" points="2093.6723,-609.4372 2103.6559,-605.8908 2093.6398,-602.4373 2093.6723,-609.4372"/>
</g>
<!-- src/users/User.js -->
<g id="node16" class="node">
<title>src/users/User.js</title>
<path fill="none" stroke="#ff6c60" d="M1823.3333,-547C1823.3333,-547 1714.6667,-547 1714.6667,-547 1710.8333,-547 1707,-543.1667 1707,-539.3333 1707,-539.3333 1707,-531.6667 1707,-531.6667 1707,-527.8333 1710.8333,-524 1714.6667,-524 1714.6667,-524 1823.3333,-524 1823.3333,-524 1827.1667,-524 1831,-527.8333 1831,-531.6667 1831,-531.6667 1831,-539.3333 1831,-539.3333 1831,-543.1667 1827.1667,-547 1823.3333,-547"/>
<text text-anchor="middle" x="1769" y="-531.8" font-family="Arial" font-size="14.00" fill="#ff6c60">src/users/User.js</text>
</g>
<!-- config/cancan/cancan&#45;config.js&#45;&gt;src/users/User.js -->
<g id="edge13" class="edge">
<title>config/cancan/cancan&#45;config.js&#45;&gt;src/users/User.js</title>
<path fill="none" stroke="#757575" d="M1576.7065,-596.9329C1616.4006,-584.2517 1680.1701,-563.8789 1723.2848,-550.1049"/>
<polygon fill="#757575" stroke="#757575" points="1724.5023,-553.3902 1732.9629,-547.0129 1722.372,-546.7222 1724.5023,-553.3902"/>
</g>
<!-- src/questions/Question.js&#45;&gt;config/mysql/mysql&#45;config.js -->
<g id="edge22" class="edge">
<title>src/questions/Question.js&#45;&gt;config/mysql/mysql&#45;config.js</title>
<path fill="none" stroke="#757575" d="M2068.2755,-718.3593C2158.8194,-719.9854 2302.6141,-721.887 2427,-720.5 2435.3093,-720.4073 2443.9068,-720.2825 2452.5519,-720.1362"/>
<polygon fill="#757575" stroke="#757575" points="2452.772,-723.6329 2462.708,-719.9552 2452.6472,-716.634 2452.772,-723.6329"/>
</g>
<!-- src/questions/Question.js&#45;&gt;src/sessions/Session.js -->
<g id="edge23" class="edge">
<title>src/questions/Question.js&#45;&gt;src/sessions/Session.js</title>
<path fill="none" stroke="#757575" d="M2000.9559,-704.9354C2019.5293,-699.065 2046.2859,-691.9759 2068,-681.5 2101.381,-665.3954 2135.492,-640.2218 2158.7705,-623.0851"/>
<polygon fill="#757575" stroke="#757575" points="2160.8439,-625.9049 2166.8353,-617.1668 2156.7024,-620.2614 2160.8439,-625.9049"/>
</g>
<!-- src/questions/Question.js&#45;&gt;src/users/User.js -->
<g id="edge24" class="edge">
<title>src/questions/Question.js&#45;&gt;src/users/User.js</title>
<path fill="none" stroke="#757575" d="M1960.2754,-704.7681C1920.2997,-673.9087 1825.3694,-591.863 1786.2779,-554.3521"/>
<polygon fill="#757575" stroke="#757575" points="1788.419,-551.5503 1778.8236,-547.0581 1783.5233,-556.5536 1788.419,-551.5503"/>
</g>
<!-- src/votings/Voting.js -->
<g id="node23" class="node">
<title>src/votings/Voting.js</title>
<path fill="none" stroke="#ff6c60" d="M2252.8333,-708C2252.8333,-708 2123.1667,-708 2123.1667,-708 2119.3333,-708 2115.5,-704.1667 2115.5,-700.3333 2115.5,-700.3333 2115.5,-692.6667 2115.5,-692.6667 2115.5,-688.8333 2119.3333,-685 2123.1667,-685 2123.1667,-685 2252.8333,-685 2252.8333,-685 2256.6667,-685 2260.5,-688.8333 2260.5,-692.6667 2260.5,-692.6667 2260.5,-700.3333 2260.5,-700.3333 2260.5,-704.1667 2256.6667,-708 2252.8333,-708"/>
<text text-anchor="middle" x="2188" y="-692.8" font-family="Arial" font-size="14.00" fill="#ff6c60">src/votings/Voting.js</text>
</g>
<!-- src/questions/Question.js&#45;&gt;src/votings/Voting.js -->
<g id="edge25" class="edge">
<title>src/questions/Question.js&#45;&gt;src/votings/Voting.js</title>
<path fill="none" stroke="#757575" d="M2035.4701,-704.9788C2056.8961,-702.2909 2081.7165,-699.7428 2105.0308,-697.8021"/>
<polygon fill="#757575" stroke="#757575" points="2105.5778,-701.2696 2115.2663,-696.982 2105.0186,-694.2919 2105.5778,-701.2696"/>
</g>
<!-- src/roles/Role.js&#45;&gt;config/mysql/mysql&#45;config.js -->
<g id="edge26" class="edge">
<title>src/roles/Role.js&#45;&gt;config/mysql/mysql&#45;config.js</title>
<path fill="none" stroke="#757575" d="M2375.5889,-453.008C2405.4162,-495.4426 2509.4749,-643.4849 2547.4724,-697.5432"/>
<polygon fill="#757575" stroke="#757575" points="2544.7625,-699.7744 2553.3765,-705.9429 2550.4894,-695.749 2544.7625,-699.7744"/>
</g>
<!-- src/roles/Role.js&#45;&gt;src/sessions/Session.js -->
<g id="edge27" class="edge">
<title>src/roles/Role.js&#45;&gt;src/sessions/Session.js</title>
<path fill="none" stroke="#757575" d="M2358.0627,-453.3532C2331.1509,-482.0122 2253.3747,-553.6113 2212.9955,-587.5106"/>
<polygon fill="#757575" stroke="#757575" points="2210.683,-584.8812 2205.2112,-593.9538 2215.1464,-590.2737 2210.683,-584.8812"/>
</g>
<!-- src/roles/Role.js&#45;&gt;src/users/User.js -->
<g id="edge28" class="edge">
<title>src/roles/Role.js&#45;&gt;src/users/User.js</title>
<path fill="none" stroke="#757575" d="M2318.8948,-453.0332C2213.7688,-473.101 1964.7999,-512.4324 1841.1969,-528.7454"/>
<polygon fill="#757575" stroke="#757575" points="1840.539,-525.3015 1831.0758,-530.0657 1841.4445,-532.2427 1840.539,-525.3015"/>
</g>
<!-- src/sessions/Session.js&#45;&gt;config/mysql/mysql&#45;config.js -->
<g id="edge35" class="edge">
<title>src/sessions/Session.js&#45;&gt;config/mysql/mysql&#45;config.js</title>
<path fill="none" stroke="#757575" d="M2226.5643,-617.0641C2295.2388,-637.6573 2438.5294,-680.6253 2513.4768,-703.0995"/>
<polygon fill="#757575" stroke="#757575" points="2512.5616,-706.4789 2523.1455,-705.9988 2514.5722,-699.7739 2512.5616,-706.4789"/>
</g>
<!-- src/sessions/Session.js&#45;&gt;src/questions/Question.js -->
<g id="edge36" class="edge">
<title>src/sessions/Session.js&#45;&gt;src/questions/Question.js</title>
<path fill="none" stroke="#757575" d="M2180.1632,-617.1405C2161.8358,-637.5189 2114.2182,-677.2021 2068,-699.5 2067.0163,-699.9746 2066.0223,-700.4422 2065.0191,-700.9028"/>
<polygon fill="#757575" stroke="#757575" points="2063.5971,-697.7042 2055.7777,-704.8531 2066.3485,-704.1408 2063.5971,-697.7042"/>
</g>
<!-- src/sessions/Session.js&#45;&gt;src/roles/Role.js -->
<g id="edge37" class="edge">
<title>src/sessions/Session.js&#45;&gt;src/roles/Role.js</title>
<path fill="none" stroke="#757575" d="M2197.1482,-593.955C2223.7497,-565.5453 2301.7555,-493.7174 2342.3299,-459.6361"/>
<polygon fill="#757575" stroke="#757575" points="2344.6847,-462.2303 2350.1538,-453.1561 2340.2197,-456.8392 2344.6847,-462.2303"/>
</g>
<!-- src/sessions/Session.js&#45;&gt;src/users/User.js -->
<g id="edge38" class="edge">
<title>src/sessions/Session.js&#45;&gt;src/users/User.js</title>
<path fill="none" stroke="#757575" d="M2130.8958,-593.9799C2111.1791,-588.2123 2088.8132,-581.8167 2068,-577.5 1991.5018,-561.634 1902.3074,-553.0422 1841.3773,-546.8451"/>
<polygon fill="#757575" stroke="#757575" points="1841.3987,-543.3291 1831.0943,-545.7926 1840.686,-550.2927 1841.3987,-543.3291"/>
</g>
<!-- src/users/User.js&#45;&gt;config/mysql/mysql&#45;config.js -->
<g id="edge64" class="edge">
<title>src/users/User.js&#45;&gt;config/mysql/mysql&#45;config.js</title>
<path fill="none" stroke="#757575" d="M1787.0403,-523.9592C1868.6418,-473.3502 2208.6923,-279.7131 2427,-420.5 2525.3346,-483.9161 2552.5603,-638.5742 2559.3984,-695.769"/>
<polygon fill="#757575" stroke="#757575" points="2555.9351,-696.2959 2560.5092,-705.8525 2562.893,-695.5294 2555.9351,-696.2959"/>
</g>
<!-- src/users/User.js&#45;&gt;src/questions/Question.js -->
<g id="edge65" class="edge">
<title>src/users/User.js&#45;&gt;src/questions/Question.js</title>
<path fill="none" stroke="#757575" d="M1787.2253,-547.2325C1827.1895,-578.0831 1922.074,-660.0881 1961.187,-697.6142"/>
<polygon fill="#757575" stroke="#757575" points="1959.0511,-700.4211 1968.6469,-704.9123 1963.9463,-695.4173 1959.0511,-700.4211"/>
</g>
<!-- src/users/User.js&#45;&gt;src/roles/Role.js -->
<g id="edge66" class="edge">
<title>src/users/User.js&#45;&gt;src/roles/Role.js</title>
<path fill="none" stroke="#757575" d="M1817.4708,-523.9925C1923.1699,-503.8082 2174.7413,-464.0859 2297.5879,-447.9538"/>
<polygon fill="#757575" stroke="#757575" points="2298.1706,-451.4076 2307.6372,-446.6502 2297.27,-444.4658 2298.1706,-451.4076"/>
</g>
<!-- src/users/User.js&#45;&gt;src/sessions/Session.js -->
<g id="edge67" class="edge">
<title>src/users/User.js&#45;&gt;src/sessions/Session.js</title>
<path fill="none" stroke="#757575" d="M1831.0943,-532.0445C1891.9449,-534.0725 1987.0762,-542.7162 2068,-559.5 2101.7714,-566.5043 2139.6307,-578.9819 2163.6281,-589.6171"/>
<polygon fill="#757575" stroke="#757575" points="2162.1719,-592.7999 2172.7107,-593.8889 2165.1512,-586.4656 2162.1719,-592.7999"/>
</g>
<!-- src/users/User.js&#45;&gt;src/votings/Voting.js -->
<g id="edge68" class="edge">
<title>src/users/User.js&#45;&gt;src/votings/Voting.js</title>
<path fill="none" stroke="#757575" d="M1809.9384,-547.0193C1893.497,-575.5979 2082.0771,-648.2092 2156.7259,-680.7208"/>
<polygon fill="#757575" stroke="#757575" points="2155.5103,-684.0101 2166.0718,-684.8498 2158.3392,-677.6071 2155.5103,-684.0101"/>
</g>
<!-- src/users/UserController.js&#45;&gt;config/passport/keys.js -->
<g id="edge69" class="edge">
<title>src/users/UserController.js&#45;&gt;config/passport/keys.js</title>
<path fill="none" stroke="#757575" d="M569.3188,-164.1404C593.3486,-164.0478 619.1926,-163.9482 643.1718,-163.8558"/>
<polygon fill="#757575" stroke="#757575" points="643.3373,-167.3553 653.3237,-163.8167 643.3102,-160.3553 643.3373,-167.3553"/>
</g>
<!-- src/users/UserController.js&#45;&gt;src/users/UserService.js -->
<g id="edge70" class="edge">
<title>src/users/UserController.js&#45;&gt;src/users/UserService.js</title>
<path fill="none" stroke="#757575" d="M550.71,-176.016C582.0549,-180.8476 618.6604,-186.49 650.9845,-191.4726"/>
<polygon fill="#757575" stroke="#757575" points="650.4516,-194.9317 660.8681,-192.9961 651.5181,-188.0134 650.4516,-194.9317"/>
</g>
<!-- src/users/UserService.js&#45;&gt;src/users/User.js -->
<g id="edge72" class="edge">
<title>src/users/UserService.js&#45;&gt;src/users/User.js</title>
<path fill="none" stroke="#757575" d="M822.1816,-193.8801C996.1646,-177.2933 1393.1081,-163.7869 1649,-344.5 1680.8954,-367.0248 1735.9158,-470.3566 1758.6792,-514.9338"/>
<polygon fill="#757575" stroke="#757575" points="1755.622,-516.6438 1763.2666,-523.9794 1761.8651,-513.4776 1755.622,-516.6438"/>
</g>
<!-- src/users/UserService.js&#45;&gt;src/errors/AppError.js -->
<g id="edge71" class="edge">
<title>src/users/UserService.js&#45;&gt;src/errors/AppError.js</title>
<path fill="none" stroke="#757575" d="M769.8323,-216.0152C898.4887,-259.167 1352.017,-411.2821 1496.1669,-459.6305"/>
<polygon fill="#757575" stroke="#757575" points="1495.4084,-463.0677 1506.0023,-462.9293 1497.6344,-456.431 1495.4084,-463.0677"/>
</g>
<!-- src/sessions/SessionController.js&#45;&gt;src/sessions/Session.js -->
<g id="edge39" class="edge">
<title>src/sessions/SessionController.js&#45;&gt;src/sessions/Session.js</title>
<path fill="none" stroke="#757575" d="M540.8364,-270.9956C567.4512,-266.6986 598.6226,-262.209 627,-259.5 796.3607,-243.3321 839.3693,-244.5 1009.5,-244.5 1009.5,-244.5 1009.5,-244.5 1285.5,-244.5 1541.0866,-244.5 1619.4797,-233.6118 1853,-337.5 1993.5268,-400.0174 2125.3225,-536.0606 2171.0331,-586.33"/>
<polygon fill="#757575" stroke="#757575" points="2168.5597,-588.8136 2177.8535,-593.9005 2173.7604,-584.1282 2168.5597,-588.8136"/>
</g>
<!-- src/sessions/SessionController.js&#45;&gt;src/users/User.js -->
<g id="edge41" class="edge">
<title>src/sessions/SessionController.js&#45;&gt;src/users/User.js</title>
<path fill="none" stroke="#757575" d="M591.1104,-271.37C809.4352,-255.314 1293.6008,-244.195 1649,-415.5 1696.2132,-438.2571 1735.7547,-487.3309 1755.4888,-515.1586"/>
<polygon fill="#757575" stroke="#757575" points="1752.8378,-517.4786 1761.4044,-523.7126 1758.5952,-513.497 1752.8378,-517.4786"/>
</g>
<!-- src/sessions/SessionController.js&#45;&gt;src/users/UserService.js -->
<g id="edge42" class="edge">
<title>src/sessions/SessionController.js&#45;&gt;src/users/UserService.js</title>
<path fill="none" stroke="#757575" d="M547.7041,-270.9838C562.3849,-267.3363 577.4734,-262.6043 591,-256.5 608.9896,-248.3817 609.063,-238.7337 627,-230.5 637.2117,-225.8125 648.3665,-221.9143 659.5126,-218.6885"/>
<polygon fill="#757575" stroke="#757575" points="660.5551,-222.0321 669.2815,-216.0238 658.7129,-215.2788 660.5551,-222.0321"/>
</g>
<!-- src/sessions/SessionService.js -->
<g id="node27" class="node">
<title>src/sessions/SessionService.js</title>
<path fill="none" stroke="#c6c5fe" d="M836.3333,-602C836.3333,-602 634.6667,-602 634.6667,-602 630.8333,-602 627,-598.1667 627,-594.3333 627,-594.3333 627,-586.6667 627,-586.6667 627,-582.8333 630.8333,-579 634.6667,-579 634.6667,-579 836.3333,-579 836.3333,-579 840.1667,-579 844,-582.8333 844,-586.6667 844,-586.6667 844,-594.3333 844,-594.3333 844,-598.1667 840.1667,-602 836.3333,-602"/>
<text text-anchor="middle" x="735.5" y="-586.8" font-family="Arial" font-size="14.00" fill="#c6c5fe">src/sessions/SessionService.js</text>
</g>
<!-- src/sessions/SessionController.js&#45;&gt;src/sessions/SessionService.js -->
<g id="edge40" class="edge">
<title>src/sessions/SessionController.js&#45;&gt;src/sessions/SessionService.js</title>
<path fill="none" stroke="#757575" d="M485.8558,-294.1979C525.0344,-340.6988 669.996,-512.7535 719.1078,-571.0442"/>
<polygon fill="#757575" stroke="#757575" points="716.5144,-573.3981 725.6343,-578.7905 721.8677,-568.8878 716.5144,-573.3981"/>
</g>
<!-- src/votings/Voting.js&#45;&gt;config/mysql/mysql&#45;config.js -->
<g id="edge73" class="edge">
<title>src/votings/Voting.js&#45;&gt;config/mysql/mysql&#45;config.js</title>
<path fill="none" stroke="#757575" d="M2260.9012,-700.5989C2315.4999,-703.6687 2391.0933,-707.9189 2452.8137,-711.3891"/>
<polygon fill="#757575" stroke="#757575" points="2452.8059,-714.8941 2462.9866,-711.9611 2453.1989,-707.9052 2452.8059,-714.8941"/>
</g>
<!-- src/votings/Voting.js&#45;&gt;src/questions/Question.js -->
<g id="edge74" class="edge">
<title>src/votings/Voting.js&#45;&gt;src/questions/Question.js</title>
<path fill="none" stroke="#757575" d="M2131.1336,-708.0082C2114.7797,-710.0612 2096.4417,-712.0331 2078.3019,-713.7157"/>
<polygon fill="#757575" stroke="#757575" points="2077.9046,-710.2372 2068.2586,-714.6193 2078.532,-717.209 2077.9046,-710.2372"/>
</g>
<!-- src/votings/Voting.js&#45;&gt;src/users/User.js -->
<g id="edge75" class="edge">
<title>src/votings/Voting.js&#45;&gt;src/users/User.js</title>
<path fill="none" stroke="#757575" d="M2146.9351,-684.9375C2063.1925,-656.2877 1874.3429,-583.5656 1799.9528,-551.1392"/>
<polygon fill="#757575" stroke="#757575" points="1801.2061,-547.8666 1790.6449,-547.0229 1798.3749,-554.2685 1801.2061,-547.8666"/>
</g>
<!-- src/roles/RoleService.js -->
<g id="node24" class="node">
<title>src/roles/RoleService.js</title>
<path fill="none" stroke="#c6c5fe" d="M1845.3333,-370C1845.3333,-370 1692.6667,-370 1692.6667,-370 1688.8333,-370 1685,-366.1667 1685,-362.3333 1685,-362.3333 1685,-354.6667 1685,-354.6667 1685,-350.8333 1688.8333,-347 1692.6667,-347 1692.6667,-347 1845.3333,-347 1845.3333,-347 1849.1667,-347 1853,-350.8333 1853,-354.6667 1853,-354.6667 1853,-362.3333 1853,-362.3333 1853,-366.1667 1849.1667,-370 1845.3333,-370"/>
<text text-anchor="middle" x="1769" y="-354.8" font-family="Arial" font-size="14.00" fill="#c6c5fe">src/roles/RoleService.js</text>
</g>
<!-- src/roles/RoleService.js&#45;&gt;src/roles/Role.js -->
<g id="edge29" class="edge">
<title>src/roles/RoleService.js&#45;&gt;src/roles/Role.js</title>
<path fill="none" stroke="#757575" d="M1806.9392,-346.9126C1893.5463,-322.6172 2110.7663,-274.009 2272,-342.5 2309.4502,-358.4086 2339.3532,-396.9948 2355.166,-421.0251"/>
<polygon fill="#757575" stroke="#757575" points="2352.3855,-423.1753 2360.703,-429.7381 2358.2935,-419.4209 2352.3855,-423.1753"/>
</g>
<!-- src/sessions/EditorSessionStrategy.js -->
<g id="node25" class="node">
<title>src/sessions/EditorSessionStrategy.js</title>
<path fill="none" stroke="#c6c5fe" d="M1131.3333,-799C1131.3333,-799 887.6667,-799 887.6667,-799 883.8333,-799 880,-795.1667 880,-791.3333 880,-791.3333 880,-783.6667 880,-783.6667 880,-779.8333 883.8333,-776 887.6667,-776 887.6667,-776 1131.3333,-776 1131.3333,-776 1135.1667,-776 1139,-779.8333 1139,-783.6667 1139,-783.6667 1139,-791.3333 1139,-791.3333 1139,-795.1667 1135.1667,-799 1131.3333,-799"/>
<text text-anchor="middle" x="1009.5" y="-783.8" font-family="Arial" font-size="14.00" fill="#c6c5fe">src/sessions/EditorSessionStrategy.js</text>
</g>
<!-- src/sessions/EditorSessionStrategy.js&#45;&gt;config/mysql/mysql&#45;config.js -->
<g id="edge31" class="edge">
<title>src/sessions/EditorSessionStrategy.js&#45;&gt;config/mysql/mysql&#45;config.js</title>
<path fill="none" stroke="#757575" d="M1131.3428,-799.0651C1133.968,-800.428 1136.5253,-801.9035 1139,-803.5 1164.8129,-820.1522 1149.5172,-845.3468 1175,-862.5 1279.3967,-932.7723 1816.6709,-938.5 1978.5,-938.5 1978.5,-938.5 1978.5,-938.5 2188,-938.5 2225.3324,-938.5 2400.8376,-880.3478 2427,-863.5 2480.2716,-829.1947 2526.3979,-768.8613 2548.1662,-737.5786"/>
<polygon fill="#757575" stroke="#757575" points="2551.1285,-739.4471 2553.884,-729.2168 2545.3503,-735.4959 2551.1285,-739.4471"/>
</g>
<!-- src/sessions/EditorSessionStrategy.js&#45;&gt;config/app/app&#45;config.js -->
<g id="edge30" class="edge">
<title>src/sessions/EditorSessionStrategy.js&#45;&gt;config/app/app&#45;config.js</title>
<path fill="none" stroke="#757575" d="M1139.0576,-786.2801C1233.6111,-785.3897 1359.6667,-784.2028 1445.1133,-783.3982"/>
<polygon fill="#757575" stroke="#757575" points="1445.3609,-786.8961 1455.3275,-783.302 1445.295,-779.8964 1445.3609,-786.8961"/>
</g>
<!-- src/sessions/EditorSessionStrategy.js&#45;&gt;src/questions/Question.js -->
<g id="edge33" class="edge">
<title>src/sessions/EditorSessionStrategy.js&#45;&gt;src/questions/Question.js</title>
<path fill="none" stroke="#757575" d="M1044.4992,-799.0096C1142.5904,-829.4048 1427.4722,-904.8755 1649,-835.5 1667.5894,-829.6784 1667.3748,-818.7952 1685,-810.5 1755.1523,-777.4833 1779.2948,-787.5625 1853,-763.5 1882.6785,-753.8109 1915.7255,-741.3658 1940.4553,-731.7161"/>
<polygon fill="#757575" stroke="#757575" points="1941.8066,-734.9457 1949.8365,-728.034 1939.2491,-728.4296 1941.8066,-734.9457"/>
</g>
<!-- src/sessions/EditorSessionStrategy.js&#45;&gt;src/errors/AppError.js -->
<g id="edge32" class="edge">
<title>src/sessions/EditorSessionStrategy.js&#45;&gt;src/errors/AppError.js</title>
<path fill="none" stroke="#757575" d="M1125.6635,-775.8887C1130.4059,-773.2093 1134.8864,-770.0999 1139,-766.5 1180.5821,-730.1109 1135.5343,-686.1742 1175,-647.5 1247.8619,-576.0993 1319.4291,-652.9078 1396,-585.5 1426.794,-558.3911 1400.6924,-527.014 1432,-500.5 1438.766,-494.77 1446.5812,-490.2578 1454.8542,-486.7111"/>
<polygon fill="#757575" stroke="#757575" points="1456.2506,-489.9248 1464.3575,-483.1037 1453.7663,-483.3805 1456.2506,-489.9248"/>
</g>
<!-- src/sessions/SessionStrategy.js -->
<g id="node26" class="node">
<title>src/sessions/SessionStrategy.js</title>
<path fill="none" stroke="#c6c5fe" d="M1388.3333,-680C1388.3333,-680 1182.6667,-680 1182.6667,-680 1178.8333,-680 1175,-676.1667 1175,-672.3333 1175,-672.3333 1175,-664.6667 1175,-664.6667 1175,-660.8333 1178.8333,-657 1182.6667,-657 1182.6667,-657 1388.3333,-657 1388.3333,-657 1392.1667,-657 1396,-660.8333 1396,-664.6667 1396,-664.6667 1396,-672.3333 1396,-672.3333 1396,-676.1667 1392.1667,-680 1388.3333,-680"/>
<text text-anchor="middle" x="1285.5" y="-664.8" font-family="Arial" font-size="14.00" fill="#c6c5fe">src/sessions/SessionStrategy.js</text>
</g>
<!-- src/sessions/EditorSessionStrategy.js&#45;&gt;src/sessions/SessionStrategy.js -->
<g id="edge34" class="edge">
<title>src/sessions/EditorSessionStrategy.js&#45;&gt;src/sessions/SessionStrategy.js</title>
<path fill="none" stroke="#757575" d="M1108.6233,-775.9568C1119.0519,-773.4083 1129.3576,-770.2974 1139,-766.5 1188.0703,-747.175 1237.4691,-709.4527 1264.5134,-686.8633"/>
<polygon fill="#757575" stroke="#757575" points="1267.1195,-689.2422 1272.4798,-680.1034 1262.5904,-683.9048 1267.1195,-689.2422"/>
</g>
<!-- src/sessions/SessionStrategy.js&#45;&gt;config/app/app&#45;config.js -->
<g id="edge53" class="edge">
<title>src/sessions/SessionStrategy.js&#45;&gt;config/app/app&#45;config.js</title>
<path fill="none" stroke="#757575" d="M1368.4909,-680.0913C1378.3199,-683.7007 1387.7673,-688.3971 1396,-694.5 1421.5976,-713.4755 1406.4414,-737.472 1432,-756.5 1437.5327,-760.619 1443.6255,-764.0952 1450.0155,-767.0276"/>
<polygon fill="#757575" stroke="#757575" points="1448.9798,-770.3859 1459.5598,-770.9465 1451.6387,-763.9105 1448.9798,-770.3859"/>
</g>
<!-- src/sessions/SessionStrategy.js&#45;&gt;config/cancan/cancan&#45;config.js -->
<g id="edge54" class="edge">
<title>src/sessions/SessionStrategy.js&#45;&gt;config/cancan/cancan&#45;config.js</title>
<path fill="none" stroke="#757575" d="M1334.6666,-656.9314C1376.6463,-647.0538 1437.1238,-632.8238 1481.6664,-622.3432"/>
<polygon fill="#757575" stroke="#757575" points="1482.5519,-625.7305 1491.4844,-620.0331 1480.9485,-618.9166 1482.5519,-625.7305"/>
</g>
<!-- src/sessions/SessionStrategy.js&#45;&gt;src/roles/Role.js -->
<g id="edge56" class="edge">
<title>src/sessions/SessionStrategy.js&#45;&gt;src/roles/Role.js</title>
<path fill="none" stroke="#757575" d="M1337.4425,-656.949C1356.9138,-651.0515 1378.5332,-642.5139 1396,-630.5 1416.5359,-616.3752 1411.9982,-602.3715 1432,-587.5 1516.2044,-524.8933 1558.6248,-547.8132 1649,-494.5 1666.4584,-484.2011 1666.3392,-474.4145 1685,-466.5 1893.3069,-378.1524 2170.3039,-407.6281 2297.8313,-428.36"/>
<polygon fill="#757575" stroke="#757575" points="2297.421,-431.8397 2307.8589,-430.0226 2298.5661,-424.934 2297.421,-431.8397"/>
</g>
<!-- src/sessions/SessionStrategy.js&#45;&gt;src/sessions/Session.js -->
<g id="edge57" class="edge">
<title>src/sessions/SessionStrategy.js&#45;&gt;src/sessions/Session.js</title>
<path fill="none" stroke="#757575" d="M1396.1408,-663.9146C1547.8791,-657.1239 1828.9761,-642.7477 2068,-620.5 2076.3392,-619.7238 2084.9932,-618.8253 2093.6614,-617.8615"/>
<polygon fill="#757575" stroke="#757575" points="2094.2862,-621.313 2103.8257,-616.7034 2093.4937,-614.358 2094.2862,-621.313"/>
</g>
<!-- src/sessions/SessionStrategy.js&#45;&gt;src/errors/AppError.js -->
<g id="edge55" class="edge">
<title>src/sessions/SessionStrategy.js&#45;&gt;src/errors/AppError.js</title>
<path fill="none" stroke="#757575" d="M1374.8748,-656.9195C1382.6595,-653.2276 1389.8861,-648.5096 1396,-642.5 1442.4323,-596.8595 1385.6615,-546.2357 1432,-500.5 1438.5807,-494.0049 1446.4797,-489.028 1454.9764,-485.229"/>
<polygon fill="#757575" stroke="#757575" points="1456.3535,-488.4487 1464.3969,-481.5528 1453.8087,-481.9277 1456.3535,-488.4487"/>
</g>
<!-- src/sessions/SessionStrategy.js&#45;&gt;src/votings/Voting.js -->
<g id="edge58" class="edge">
<title>src/sessions/SessionStrategy.js&#45;&gt;src/votings/Voting.js</title>
<path fill="none" stroke="#757575" d="M1377.694,-680.0169C1395.6982,-682.2125 1414.4366,-684.4603 1432,-686.5 1713.6459,-719.2083 1788.1224,-781.9179 2068,-736.5 2097.0197,-731.7908 2128.5048,-721.0679 2151.9406,-711.9089"/>
<polygon fill="#757575" stroke="#757575" points="2153.4757,-715.0645 2161.4611,-708.1014 2150.8764,-708.565 2153.4757,-715.0645"/>
</g>
<!-- src/sessions/SessionService.js&#45;&gt;config/app/app&#45;config.js -->
<g id="edge43" class="edge">
<title>src/sessions/SessionService.js&#45;&gt;config/app/app&#45;config.js</title>
<path fill="none" stroke="#757575" d="M763.345,-602.0761C792.1563,-613.7292 838.6484,-631.6323 880,-643.5 937.0019,-659.8592 1316.8507,-737.2599 1473.3261,-768.9367"/>
<polygon fill="#757575" stroke="#757575" points="1472.8084,-772.4028 1483.304,-770.9559 1474.1969,-765.5419 1472.8084,-772.4028"/>
</g>
<!-- src/sessions/SessionService.js&#45;&gt;config/cancan/cancan&#45;config.js -->
<g id="edge44" class="edge">
<title>src/sessions/SessionService.js&#45;&gt;config/cancan/cancan&#45;config.js</title>
<path fill="none" stroke="#757575" d="M844.0659,-592.9276C994.6147,-596.2939 1265.7953,-602.3575 1421.6327,-605.8421"/>
<polygon fill="#757575" stroke="#757575" points="1421.6524,-609.3433 1431.7282,-606.0678 1421.809,-602.3451 1421.6524,-609.3433"/>
</g>
<!-- src/sessions/SessionService.js&#45;&gt;src/questions/Question.js -->
<g id="edge46" class="edge">
<title>src/sessions/SessionService.js&#45;&gt;src/questions/Question.js</title>
<path fill="none" stroke="#757575" d="M739.4588,-602.0522C752.7249,-638.8838 799.3721,-754.2333 880,-807.5 991.2789,-881.0163 1042.2444,-849.709 1175,-862.5 1476.1559,-891.5163 1580.2316,-932.3976 1853,-801.5 1891.6678,-782.9439 1931.9686,-753.5622 1956.1497,-734.6608"/>
<polygon fill="#757575" stroke="#757575" points="1958.6288,-737.1622 1964.2964,-728.2107 1954.2836,-731.6741 1958.6288,-737.1622"/>
</g>
<!-- src/sessions/SessionService.js&#45;&gt;src/roles/Role.js -->
<g id="edge47" class="edge">
<title>src/sessions/SessionService.js&#45;&gt;src/roles/Role.js</title>
<path fill="none" stroke="#757575" d="M739.1519,-578.8158C751.6359,-541.0562 796.5297,-421.8494 880,-371.5 992.8091,-303.4533 1043.64,-352.5395 1175,-342.5 1661.4294,-305.3236 1876.9375,-18.2811 2272,-304.5 2312.9733,-334.1848 2274.6559,-374.4452 2308,-412.5 2312.2741,-417.3779 2317.5555,-421.5145 2323.1923,-424.9996"/>
<polygon fill="#757575" stroke="#757575" points="2321.796,-428.2252 2332.2491,-429.9528 2325.1549,-422.0837 2321.796,-428.2252"/>
</g>
<!-- src/sessions/SessionService.js&#45;&gt;src/users/User.js -->
<g id="edge52" class="edge">
<title>src/sessions/SessionService.js&#45;&gt;src/users/User.js</title>
<path fill="none" stroke="#757575" d="M759.5899,-578.7823C787.9114,-565.3327 836.5707,-543.2368 880,-528.5 1008.1076,-485.0295 1040.7647,-470.2966 1175,-453.5 1384.0366,-427.3436 1447.7254,-391.2988 1649,-453.5 1689.1509,-465.9081 1727.8491,-496.8776 1749.9911,-517.0057"/>
<polygon fill="#757575" stroke="#757575" points="1747.6674,-519.6244 1757.3716,-523.8764 1752.437,-514.5008 1747.6674,-519.6244"/>
</g>
<!-- src/sessions/SessionService.js&#45;&gt;src/errors/AppError.js -->
<g id="edge45" class="edge">
<title>src/sessions/SessionService.js&#45;&gt;src/errors/AppError.js</title>
<path fill="none" stroke="#757575" d="M815.6295,-578.9534C967.7841,-557.028 1297.3103,-509.5435 1454.1571,-486.942"/>
<polygon fill="#757575" stroke="#757575" points="1454.8363,-490.3803 1464.2349,-485.4898 1453.8379,-483.4519 1454.8363,-490.3803"/>
</g>
<!-- src/sessions/SessionService.js&#45;&gt;src/roles/RoleService.js -->
<g id="edge48" class="edge">
<title>src/sessions/SessionService.js&#45;&gt;src/roles/RoleService.js</title>
<path fill="none" stroke="#757575" d="M743.6931,-578.9408C763.5375,-551.965 817.1994,-484.9194 880,-455.5 1146.7753,-330.527 1506.4841,-337.525 1674.798,-349.5171"/>
<polygon fill="#757575" stroke="#757575" points="1674.6415,-353.0149 1684.8711,-350.2572 1675.1545,-346.0337 1674.6415,-353.0149"/>
</g>
<!-- src/sessions/SessionService.js&#45;&gt;src/sessions/EditorSessionStrategy.js -->
<g id="edge49" class="edge">
<title>src/sessions/SessionService.js&#45;&gt;src/sessions/EditorSessionStrategy.js</title>
<path fill="none" stroke="#757575" d="M741.3176,-602.4173C757.8781,-634.935 808.7219,-725.4932 880,-766.5 883.6647,-768.6083 887.4788,-770.5213 891.4013,-772.2562"/>
<polygon fill="#757575" stroke="#757575" points="890.147,-775.524 900.7316,-775.9891 892.7473,-769.0249 890.147,-775.524"/>
</g>
<!-- src/sessions/SessionService.js&#45;&gt;src/sessions/SessionStrategy.js -->
<g id="edge50" class="edge">
<title>src/sessions/SessionService.js&#45;&gt;src/sessions/SessionStrategy.js</title>
<path fill="none" stroke="#757575" d="M816.6544,-602.0092C917.3914,-616.2955 1088.7377,-640.5955 1194.0335,-655.5284"/>
<polygon fill="#757575" stroke="#757575" points="1193.6202,-659.0047 1204.0127,-656.9436 1194.6032,-652.0741 1193.6202,-659.0047"/>
</g>
<!-- src/sessions/UserSessionStrategy.js -->
<g id="node28" class="node">
<title>src/sessions/UserSessionStrategy.js</title>
<path fill="none" stroke="#c6c5fe" d="M1127.8333,-758C1127.8333,-758 891.1667,-758 891.1667,-758 887.3333,-758 883.5,-754.1667 883.5,-750.3333 883.5,-750.3333 883.5,-742.6667 883.5,-742.6667 883.5,-738.8333 887.3333,-735 891.1667,-735 891.1667,-735 1127.8333,-735 1127.8333,-735 1131.6667,-735 1135.5,-738.8333 1135.5,-742.6667 1135.5,-742.6667 1135.5,-750.3333 1135.5,-750.3333 1135.5,-754.1667 1131.6667,-758 1127.8333,-758"/>
<text text-anchor="middle" x="1009.5" y="-742.8" font-family="Arial" font-size="14.00" fill="#c6c5fe">src/sessions/UserSessionStrategy.js</text>
</g>
<!-- src/sessions/SessionService.js&#45;&gt;src/sessions/UserSessionStrategy.js -->
<g id="edge51" class="edge">
<title>src/sessions/SessionService.js&#45;&gt;src/sessions/UserSessionStrategy.js</title>
<path fill="none" stroke="#757575" d="M744.5604,-602.0927C765.4175,-627.9037 819.6874,-690.2129 880,-720.5 889.3177,-725.1791 899.4108,-729.0162 909.7098,-732.1629"/>
<polygon fill="#757575" stroke="#757575" points="909.0533,-735.6146 919.6287,-734.9732 910.9615,-728.8797 909.0533,-735.6146"/>
</g>
<!-- src/sessions/UserSessionStrategy.js&#45;&gt;config/mysql/mysql&#45;config.js -->
<g id="edge60" class="edge">
<title>src/sessions/UserSessionStrategy.js&#45;&gt;config/mysql/mysql&#45;config.js</title>
<path fill="none" stroke="#757575" d="M1122.5186,-758.0013C1128.2706,-760.4061 1133.808,-763.2182 1139,-766.5 1163.0703,-781.7146 1150.5368,-804.9256 1175,-819.5 1329.1732,-911.3516 1799.0395,-900.5 1978.5,-900.5 1978.5,-900.5 1978.5,-900.5 2188,-900.5 2336.3931,-900.5 2487.2295,-782.5713 2540.9591,-736.0501"/>
<polygon fill="#757575" stroke="#757575" points="2543.5269,-738.4532 2548.7333,-729.2259 2538.909,-733.1925 2543.5269,-738.4532"/>
</g>
<!-- src/sessions/UserSessionStrategy.js&#45;&gt;config/app/app&#45;config.js -->
<g id="edge59" class="edge">
<title>src/sessions/UserSessionStrategy.js&#45;&gt;config/app/app&#45;config.js</title>
<path fill="none" stroke="#757575" d="M1135.6762,-755.0543C1230.6791,-761.4952 1358.8903,-770.1875 1445.3626,-776.05"/>
<polygon fill="#757575" stroke="#757575" points="1445.2192,-779.5482 1455.433,-776.7327 1445.6927,-772.5643 1445.2192,-779.5482"/>
</g>
<!-- src/sessions/UserSessionStrategy.js&#45;&gt;src/questions/Question.js -->
<g id="edge62" class="edge">
<title>src/sessions/UserSessionStrategy.js&#45;&gt;src/questions/Question.js</title>
<path fill="none" stroke="#757575" d="M1099.1265,-758.0297C1112.5763,-760.4261 1126.2153,-763.2371 1139,-766.5 1155.4829,-770.7067 1158.391,-775.8226 1175,-779.5 1380.9273,-825.095 1450.6831,-874.3006 1649,-802.5 1668.5833,-795.4098 1666.171,-781.402 1685,-772.5 1745.7352,-743.7855 1820.1336,-729.792 1878.8274,-722.9738"/>
<polygon fill="#757575" stroke="#757575" points="1879.2979,-726.4432 1888.8506,-721.8611 1878.5255,-719.4859 1879.2979,-726.4432"/>
</g>
<!-- src/sessions/UserSessionStrategy.js&#45;&gt;src/errors/AppError.js -->
<g id="edge61" class="edge">
<title>src/sessions/UserSessionStrategy.js&#45;&gt;src/errors/AppError.js</title>
<path fill="none" stroke="#757575" d="M1021.4237,-734.8326C1047.4176,-709.9097 1111.9283,-650.7959 1175,-614.5 1266.3508,-561.9303 1304.3296,-580.5104 1396,-528.5 1413.6299,-518.4974 1413.7316,-509.2823 1432,-500.5 1441.6903,-495.8415 1452.2794,-491.9808 1462.9219,-488.791"/>
<polygon fill="#757575" stroke="#757575" points="1464.0065,-492.1218 1472.6865,-486.0465 1462.1124,-485.3829 1464.0065,-492.1218"/>
</g>
<!-- src/sessions/UserSessionStrategy.js&#45;&gt;src/sessions/SessionStrategy.js -->
<g id="edge63" class="edge">
<title>src/sessions/UserSessionStrategy.js&#45;&gt;src/sessions/SessionStrategy.js</title>
<path fill="none" stroke="#757575" d="M1050.2248,-734.9908C1099.2476,-721.1365 1181.5928,-697.8651 1234.7175,-682.8516"/>
<polygon fill="#757575" stroke="#757575" points="1235.9369,-686.1441 1244.6082,-680.0564 1234.0332,-679.4079 1235.9369,-686.1441"/>
</g>
</g>
</svg>
